Music_UnownKingBattle:
	channel_count 3
	channel 1, Music_UnownKingBattle_Ch1
	channel 2, Music_UnownKingBattle_Ch2
	channel 3, Music_UnownKingBattle_Ch3

Music_UnownKingBattle_Ch1:
	volume 7, 7
	duty_cycle 3
	vibrato 18, 1, 5
	note_type 12, 11, 7
	octave 4
	tempo 111
	note A_, 1
	note G#, 1
	note G_, 4
	note E_, 2
	note D#, 1
	note D_, 1
	note C#, 4
	octave 3
	note A#, 2
	note A_, 1
	note G#, 1
	note G_, 4
	note E_, 2
	note D#, 1
	note D_, 1
	note C#, 4
	octave 2
	note A#, 2
	volume_envelope 12, 2
	rest 4
	note E_, 8
	note E_, 8
	note E_, 8
	octave 4
	volume_envelope 12, 3
	note A#, 4
	volume_envelope 12, 2
	note A_, 2
	rest 2
	octave 2
	note E_, 8
	note E_, 8
	note E_, 8
	octave 4
	volume_envelope 12, 3
	note A#, 4
	volume_envelope 12, 2
	note A_, 2
	rest 2
	note E_, 8
	note E_, 8
	note E_, 8
	volume_envelope 12, 3
	note A#, 4
	volume_envelope 12, 2
	note A_, 2
	rest 2
	note E_, 8
	note E_, 8
	note E_, 8
	note E_, 4
.mainloop:
	octave 4
	vibrato 18, 9, 5
	tempo 111
	volume_envelope 12, 8
	note G_, 6
	note G_, 4
	note G_, 2
	volume_envelope 12, 7
	note D_, 8
	note F#, 2
	note G_, 1
	rest 1
	note G#, 1
	rest 1
	note A#, 2
	note G#, 1
	rest 1
	note G_, 2
	volume_envelope 12, 8
	note F#, 6
	note F#, 4
	note F#, 2
	volume_envelope 12, 7
	note D_, 8
	note D_, 2
	note F#, 1
	rest 1
	note D_, 1
	rest 1
	note A_, 2
	note G_, 1
	rest 1
	note F#, 2
	volume_envelope 12, 8
	note F_, 6
	note F_, 4
	note F_, 2
	volume_envelope 12, 7
	note D_, 8
	note D_, 2
	note F_, 1
	rest 1
	note D_, 1
	rest 1
	note A_, 2
	note A#, 1
	rest 1
	note F_, 2
	volume_envelope 12, 8
	note F#, 6
	note F#, 4
	note F#, 2
	volume_envelope 12, 7
	note D_, 8
	note A_, 2
	octave 5
	note D_, 1
	rest 1
	octave 4
	note A_, 1
	rest 1
	octave 5
	note F#, 2
	note D_, 1
	rest 1
	octave 4
	note A_, 2
	volume_envelope 12, 8
	note G_, 6
	note G_, 4
	note G_, 2
	volume_envelope 12, 7
	note D_, 8
	note F#, 2
	note G_, 1
	rest 1
	note G#, 1
	rest 1
	note A#, 2
	note G#, 1
	rest 1
	note G_, 2
	volume_envelope 12, 8
	note F#, 6
	note F#, 4
	note F#, 2
	volume_envelope 12, 7
	note D_, 8
	note D_, 2
	note F#, 1
	rest 1
	note D_, 1
	rest 1
	note A_, 2
	note G_, 1
	rest 1
	note F#, 2
	volume_envelope 12, 8
	note F_, 6
	note F_, 4
	note F_, 2
	volume_envelope 12, 7
	note D_, 8
	note D_, 2
	note F_, 1
	rest 1
	note D_, 1
	rest 1
	note A_, 2
	note A#, 1
	rest 1
	note F_, 2
	volume_envelope 12, 8
	note F#, 6
	note F#, 4
	note F#, 2
	volume_envelope 12, 7
	note D_, 8
	note A_, 2
	octave 5
	note D_, 1
	rest 1
	octave 4
	note A_, 1
	rest 1
	octave 5
	note F#, 2
	note D_, 1
	rest 1
	octave 4
	note A#, 2
	octave 5
	note D_, 3
	octave 4
	note A_, 5
	note F#, 3
	note D_, 5
	octave 3
	note G_, 2
	note A#, 1
	octave 4
	note D_, 2
	rest 1
	octave 3
	note A#, 2
	octave 4
	note C_, 4
	octave 3
	note F#, 4
	note D_, 3
	note G_, 5
	note F#, 3
	note A_, 5
	octave 4
	note C_, 2
	octave 3
	note A#, 1
	note A_, 2
	rest 1
	note F#, 2
	note D_, 4
	note A_, 4
	octave 5
	note D_, 3
	octave 4
	note A_, 5
	note F#, 3
	note D_, 5
	octave 3
	note G_, 2
	note A#, 1
	octave 4
	note D_, 2
	rest 1
	octave 3
	note A#, 2
	octave 4
	note C_, 4
	octave 3
	note F#, 4
	note D_, 3
	note G_, 5
	note F#, 3
	note A_, 5
	octave 4
	note C_, 2
	octave 3
	note A#, 1
	note A_, 2
	rest 1
	note F#, 2
	note D_, 4
	note A_, 4
	octave 4
	note D_, 3
	note G_, 5
	note D_, 3
	note F#, 5
	octave 3
	note A#, 2
	octave 4
	note D_, 1
	note F_, 2
	rest 1
	note F_, 2
	note C_, 4
	octave 3
	note A#, 4
	note G_, 3
	note A#, 5
	note F#, 3
	note A_, 5
	note D_, 1
	note F#, 1
	note A#, 1
	octave 4
	note C_, 1
	octave 3
	note F#, 1
	note A_, 1
	octave 4
	note C_, 1
	note D_, 1
	note F#, 2
	note C_, 1
	note D_, 3
	note A#, 2
	octave 5
	note D_, 3
	note G_, 5
	note D_, 3
	note F#, 5
	octave 4
	note A#, 2
	octave 5
	note D_, 1
	note F_, 2
	rest 1
	note F_, 2
	note C_, 4
	octave 4
	note A#, 4
	note G_, 3
	note A#, 5
	note F#, 3
	note A_, 5
	note D_, 1
	note F#, 1
	note A#, 1
	octave 5
	note C_, 1
	octave 4
	note F#, 1
	note A_, 1
	octave 5
	note C_, 1
	note D_, 1
	note F#, 2
	note C_, 1
	note D_, 3
	note A#, 2
	octave 3
	volume_envelope 12, 8
	note A#, 8
	octave 4
	volume_envelope 12, 7
	note D_, 2
	octave 3
	note A_, 1
	rest 1
	octave 4
	note D_, 1
	rest 1
	octave 3
	note A_, 2
	octave 4
	volume_envelope 12, 8
	note F_, 8
	volume_envelope 12, 7
	note D_, 8
	volume_envelope 12, 8
	note C_, 8
	octave 3
	volume_envelope 12, 7
	note F#, 2
	note A_, 1
	rest 1
	note A_, 1
	rest 1
	octave 4
	note D_, 2
	note A_, 6
	note A_, 1
	note G_, 1
	note F#, 4
	note D_, 4
	octave 3
	volume_envelope 12, 8
	note A#, 8
	octave 4
	volume_envelope 12, 7
	note D_, 2
	octave 3
	note A_, 1
	rest 1
	octave 4
	note D_, 1
	rest 1
	octave 3
	note A_, 2
	octave 4
	volume_envelope 12, 8
	note F_, 8
	volume_envelope 12, 7
	note D_, 8
	volume_envelope 12, 8
	note C_, 8
	octave 3
	volume_envelope 12, 7
	note F#, 2
	note A_, 1
	rest 1
	note A_, 1
	rest 1
	octave 4
	note D_, 2
	note A_, 6
	note F#, 1
	note A_, 1
	note A#, 4
	octave 5
	note C_, 4
	volume_envelope 12, 8
	note D_, 14
	volume_envelope 12, 7
	note C_, 1
	note D_, 1
	volume_envelope 12, 8
	note F_, 6
	note D_, 6
	octave 4
	note F#, 4
	octave 5
	note C_, 6
	note D_, 6
	note C_, 4
	octave 4
	note A_, 6
	note D_, 6
	volume_envelope 12, 7
	note A#, 2
	note A_, 1
	note A_, 1
	note G_, 8
	rest 4
	volume_envelope 12, 8
	note D_, 4
	octave 5
	note D_, 6
	note F_, 4
	octave 4
	volume_envelope 12, 7
	note A_, 2
	octave 5
	note C_, 1
	note D_, 1
	note C_, 2
	octave 4
	note A#, 3
	volume_envelope 12, 8
	note G_, 5
	volume_envelope 12, 7
	note D_, 3
	note F#, 3
	note D_, 1
	note F#, 1
	octave 5
	volume_envelope 12, 8
	note D_, 6
	octave 4
	volume_envelope 12, 7
	note A_, 2
	note A#, 4
	note F#, 4
	volume_envelope 12, 8
	note G_, 8
	note A_, 8
	note A#, 8
	octave 5
	note D_, 8
	octave 4
	note A#, 8
	octave 5
	note C_, 8
	note D_, 8
	note F#, 8
	sound_jump .mainloop

Music_UnownKingBattle_Ch2:
	vibrato 20, 3, 4
	note_type 12, 12, 3
	octave 5
	duty_cycle 0
	note E_, 1
	note E_, 2
	octave 4
	note A_, 1
	octave 5
	note E_, 1
	note E_, 2
	octave 4
	note A_, 1
	octave 5
	note E_, 1
	note E_, 2
	octave 4
	note A_, 1
	octave 5
	note E_, 1
	note E_, 2
	octave 4
	note A_, 1
	octave 5
	note E_, 1
	note E_, 2
	octave 4
	note A_, 1
	octave 5
	note E_, 1
	note E_, 2
	octave 4
	note A_, 1
	octave 5
	note E_, 1
	note E_, 2
	octave 4
	note A_, 1
	octave 5
	note E_, 1
	note E_, 2
	octave 4
	note A_, 1
	octave 2
	volume_envelope 11, 2
	note G_, 2
	note G_, 2
	note D_, 2
	note A#, 2
	note A#, 2
	note D_, 2
	octave 3
	note D_, 2
	note D_, 2
	note D_, 2
	octave 2
	note D_, 2
	octave 3
	note D_, 2
	note D_, 2
	octave 2
	note A#, 2
	note D_, 2
	octave 4
	volume_envelope 11, 3
	note F_, 4
	note E_, 2
	octave 2
	volume_envelope 11, 2
	note F#, 2
	note D_, 2
	note A_, 2
	note A_, 2
	note D_, 2
	octave 3
	note D_, 2
	note D_, 2
	note D_, 2
	octave 2
	note D_, 2
	octave 3
	note D_, 2
	note D_, 2
	octave 2
	note A_, 2
	note D_, 2
	octave 4
	volume_envelope 11, 3
	note F_, 4
	note E_, 2
	octave 2
	volume_envelope 11, 2
	note F_, 2
	note D_, 2
	note A#, 2
	note A#, 2
	note D_, 2
	octave 3
	note D_, 2
	note D_, 2
	note D_, 2
	octave 2
	note D_, 2
	octave 3
	note D_, 2
	note D_, 2
	octave 2
	note A#, 2
	note D_, 2
	octave 4
	volume_envelope 11, 3
	note F_, 4
	note E_, 2
	octave 2
	volume_envelope 11, 2
	note F#, 2
	note D_, 2
	note A_, 2
	note A_, 2
	note D_, 2
	octave 3
	note C_, 2
	note C_, 2
	note C_, 2
	octave 2
	note D_, 2
	octave 3
	note C_, 2
	note C_, 2
	octave 2
	note A_, 2
	note D_, 2
	note F#, 2
	note F#, 2
.mainloop:
	octave 2
	volume_envelope 11, 4
	duty_cycle 0
	note G_, 2
	note G_, 2
	note D_, 2
	note A#, 2
	note A#, 2
	note D_, 2
	octave 3
	note D_, 2
	note D_, 2
	note D_, 2
	octave 2
	note D_, 2
	octave 3
	note D_, 2
	note D_, 2
	octave 2
	note A#, 2
	note D_, 2
	octave 3
	note D_, 2
	note D_, 2
	octave 2
	note F#, 2
	note F#, 2
	note D_, 2
	note A_, 2
	note A_, 2
	note D_, 2
	octave 3
	note D_, 2
	note D_, 2
	note D_, 2
	octave 2
	note D_, 2
	octave 3
	note D_, 2
	note D_, 2
	octave 2
	note A_, 2
	note D_, 2
	octave 3
	note D_, 2
	note D_, 2
	octave 2
	note F_, 2
	note F_, 2
	note D_, 2
	note A#, 2
	note A#, 2
	note D_, 2
	octave 3
	note D_, 2
	note D_, 2
	note D_, 2
	octave 2
	note D_, 2
	octave 3
	note D_, 2
	note D_, 2
	octave 2
	note A#, 2
	note D_, 2
	octave 3
	note D_, 2
	note D_, 2
	octave 2
	note F#, 2
	note F#, 2
	note D_, 2
	note A_, 2
	note A_, 2
	note D_, 2
	octave 3
	note C_, 2
	note C_, 2
	note C_, 2
	octave 2
	note D_, 2
	octave 3
	note C_, 2
	note C_, 2
	octave 2
	note A_, 2
	note D_, 2
	note F#, 2
	note F#, 2
	note G_, 2
	note G_, 2
	note D_, 2
	note A#, 2
	note A#, 2
	note D_, 2
	octave 3
	note D_, 2
	note D_, 2
	note D_, 2
	octave 2
	note D_, 2
	octave 3
	note D_, 2
	note D_, 2
	octave 2
	note A#, 2
	note D_, 2
	octave 3
	note D_, 2
	note D_, 2
	octave 2
	note F#, 2
	note F#, 2
	note D_, 2
	note A_, 2
	note A_, 2
	note D_, 2
	octave 3
	note D_, 2
	note D_, 2
	note D_, 2
	octave 2
	note D_, 2
	octave 3
	note D_, 2
	note D_, 2
	octave 2
	note A_, 2
	note D_, 2
	octave 3
	note D_, 2
	note D_, 2
	octave 2
	note F_, 2
	note F_, 2
	note D_, 2
	note A#, 2
	note A#, 2
	note D_, 2
	octave 3
	note D_, 2
	note D_, 2
	note D_, 2
	octave 2
	note D_, 2
	octave 3
	note D_, 2
	note D_, 2
	octave 2
	note A#, 2
	note D_, 2
	octave 3
	note D_, 2
	note D_, 2
	octave 2
	note F#, 2
	note F#, 2
	note D_, 2
	note A_, 2
	note A_, 2
	note D_, 2
	octave 3
	note C_, 2
	note C_, 2
	note C_, 2
	octave 2
	note D_, 2
	octave 3
	note C_, 2
	note C_, 2
	octave 2
	note A_, 2
	note D_, 2
	note F#, 2
	note F#, 2
	octave 3
	note G_, 2
	note E_, 2
	note A#, 2
	note G_, 2
	octave 4
	note D_, 2
	octave 3
	note E_, 2
	note A_, 2
	note A_, 2
	volume_envelope 11, 6
	note G_, 6
	volume_envelope 11, 4
	note G_, 2
	volume_envelope 11, 6
	note F#, 8
	volume_envelope 11, 4
	note A#, 2
	note E_, 2
	note A_, 2
	note E_, 2
	note G_, 2
	note G_, 2
	volume_envelope 11, 6
	note F#, 4
	note A_, 6
	volume_envelope 11, 4
	note A_, 2
	volume_envelope 11, 6
	note D_, 6
	octave 2
	volume_envelope 11, 4
	note A#, 2
	octave 3
	note G_, 2
	note E_, 2
	note A#, 2
	note G_, 2
	octave 4
	note D_, 2
	note D_, 2
	octave 3
	volume_envelope 11, 6
	note A_, 4
	octave 4
	note G_, 6
	volume_envelope 11, 4
	note G_, 2
	volume_envelope 11, 6
	note D_, 8
	volume_envelope 11, 4
	note C_, 2
	octave 3
	note A_, 2
	octave 4
	note D_, 2
	octave 3
	note A_, 2
	note F#, 2
	note D#, 2
	volume_envelope 11, 6
	note A_, 4
	octave 4
	note C_, 6
	volume_envelope 11, 4
	note C_, 2
	octave 3
	note A#, 2
	note A#, 2
	octave 4
	volume_envelope 11, 6
	note C_, 4
	octave 3
	volume_envelope 11, 4
	note G_, 2
	note E_, 2
	note A#, 2
	note G_, 2
	octave 4
	note D_, 2
	octave 3
	note E_, 2
	note A_, 2
	note A_, 2
	volume_envelope 11, 6
	note G_, 6
	volume_envelope 11, 4
	note G_, 2
	volume_envelope 11, 6
	note F#, 8
	volume_envelope 11, 4
	note A#, 2
	note E_, 2
	note A_, 2
	note E_, 2
	note G_, 2
	note G_, 2
	volume_envelope 11, 6
	note F#, 4
	note A_, 6
	volume_envelope 11, 4
	note A_, 2
	volume_envelope 11, 6
	note D_, 6
	octave 2
	volume_envelope 11, 4
	note A#, 2
	octave 3
	note G_, 2
	note E_, 2
	note A#, 2
	note G_, 2
	octave 4
	note D_, 2
	note D_, 2
	octave 3
	volume_envelope 11, 6
	note A_, 4
	octave 4
	note G_, 6
	volume_envelope 11, 4
	note G_, 2
	volume_envelope 11, 6
	note D_, 8
	volume_envelope 11, 4
	note C_, 2
	octave 3
	note A_, 2
	octave 4
	note D_, 2
	octave 3
	note A_, 2
	note F#, 2
	note D#, 2
	volume_envelope 11, 6
	note A_, 4
	octave 4
	note C_, 6
	volume_envelope 11, 4
	note C_, 2
	octave 3
	note A#, 2
	note A#, 2
	octave 4
	volume_envelope 11, 6
	note C_, 4
	octave 3
	volume_envelope 11, 7
	note G_, 16
	note F_, 16
	note E_, 16
	note F_, 8
	note A_, 8
	note G_, 16
	note F_, 16
	note E_, 16
	note F_, 8
	rest 8
	volume_envelope 11, 4
	note G_, 2
	note E_, 2
	note A#, 2
	note G_, 2
	octave 4
	note D_, 2
	octave 3
	note E_, 2
	note A_, 2
	note A_, 2
	volume_envelope 11, 6
	note G_, 6
	volume_envelope 11, 4
	note G_, 2
	volume_envelope 11, 6
	note F#, 8
	volume_envelope 11, 4
	note A#, 2
	note E_, 2
	note A_, 2
	note E_, 2
	note G_, 2
	note G_, 2
	volume_envelope 11, 6
	note F#, 4
	note A_, 6
	volume_envelope 11, 4
	note A_, 2
	volume_envelope 11, 6
	note D_, 6
	octave 2
	volume_envelope 11, 4
	note A#, 2
	octave 3
	note G_, 2
	note E_, 2
	note A#, 2
	note G_, 2
	octave 4
	note D_, 2
	note D_, 2
	octave 3
	volume_envelope 11, 6
	note A_, 4
	octave 4
	note G_, 6
	volume_envelope 11, 4
	note G_, 2
	volume_envelope 11, 6
	note D_, 8
	volume_envelope 11, 4
	note C_, 2
	octave 3
	note A_, 2
	octave 4
	note D_, 2
	octave 3
	note A_, 2
	note F#, 2
	note D#, 2
	volume_envelope 11, 6
	note A_, 4
	octave 4
	note C_, 6
	volume_envelope 11, 4
	note C_, 2
	octave 3
	note A#, 2
	note A#, 2
	octave 4
	volume_envelope 11, 6
	note C_, 4
	octave 3
	volume_envelope 11, 7
	note G_, 8
	note A_, 8
	octave 4
	note D_, 8
	note A_, 8
	volume_envelope 11, 4
	note G_, 1
	rest 3
	note G_, 1
	rest 3
	note F#, 1
	rest 2
	note F#, 1
	rest 2
	note F#, 1
	rest 1
	volume_envelope 12, 3
	note E_, 1
	note E_, 2
	octave 3
	note A_, 1
	octave 4
	note E_, 1
	note E_, 2
	octave 3
	note A_, 1
	octave 4
	note E_, 1
	note E_, 2
	octave 3
	note A_, 1
	octave 4
	note E_, 1
	note E_, 2
	octave 3
	note A_, 1
	octave 4
	sound_jump .mainloop

Music_UnownKingBattle_Ch3:
	note_type 12, 1, 8
	rest 16
	rest 4
	octave 2
	note A_, 4
	note D_, 2
	note E_, 2
	note A#, 2
	note G_, 2
	note G_, 6
	octave 3
	note G_, 2
	rest 4
	octave 2
	note G_, 2
	rest 6
	note G_, 2
	octave 3
	note G_, 1
	rest 1
	octave 2
	note G_, 1
	rest 1
	note G_, 1
	rest 1
	note G_, 1
	rest 1
	note G_, 1
	rest 1
	note F#, 6
	octave 3
	note F#, 2
	rest 4
	octave 2
	note F#, 2
	rest 6
	note F#, 2
	octave 3
	note F#, 1
	rest 1
	octave 2
	note F#, 1
	rest 1
	note F#, 1
	rest 1
	note F#, 1
	rest 1
	note F#, 1
	rest 1
	note F_, 6
	octave 3
	note F_, 2
	rest 4
	octave 2
	note F_, 2
	rest 6
	note F_, 2
	octave 3
	note F_, 1
	rest 1
	octave 2
	note F_, 1
	rest 1
	note F_, 1
	rest 1
	note F_, 1
	rest 1
	note F_, 1
	rest 1
	note F#, 6
	octave 3
	note F#, 2
	rest 4
	octave 2
	note F#, 2
	rest 6
	note F#, 2
	octave 3
	note F#, 1
	rest 1
	octave 2
	note F#, 1
	rest 1
	note F#, 1
	rest 1
	note F#, 1
	rest 1
	note F#, 1
	rest 1
.mainloop:
	octave 2
	volume_envelope 1, 8
	note G_, 6
	octave 3
	note G_, 2
	rest 4
	octave 2
	note G_, 2
	rest 6
	note G_, 2
	octave 3
	note G_, 1
	rest 1
	octave 2
	note G_, 1
	rest 1
	note G_, 1
	rest 1
	note G_, 1
	rest 1
	note G_, 1
	rest 1
	note F#, 6
	octave 3
	note F#, 2
	rest 4
	octave 2
	note F#, 2
	rest 6
	note F#, 2
	octave 3
	note F#, 1
	rest 1
	octave 2
	note F#, 1
	rest 1
	note F#, 1
	rest 1
	note F#, 1
	rest 1
	note F#, 1
	rest 1
	note F_, 6
	octave 3
	note F_, 2
	rest 4
	octave 2
	note F_, 2
	rest 6
	note F_, 2
	octave 3
	note F_, 1
	rest 1
	octave 2
	note F_, 1
	rest 1
	note F_, 1
	rest 1
	note F_, 1
	rest 1
	note F_, 1
	rest 1
	note F#, 6
	octave 3
	note F#, 2
	rest 4
	octave 2
	note F#, 2
	rest 6
	note F#, 2
	octave 3
	note F#, 1
	rest 1
	octave 2
	note F#, 1
	rest 1
	note F#, 1
	rest 1
	note F#, 1
	rest 1
	note F#, 1
	rest 1
	note G_, 6
	octave 3
	note G_, 2
	rest 4
	octave 2
	note G_, 2
	rest 6
	note G_, 2
	octave 3
	note G_, 1
	rest 1
	octave 2
	note G_, 1
	rest 1
	note G_, 1
	rest 1
	note G_, 1
	rest 1
	note G_, 1
	rest 1
	note F#, 6
	octave 3
	note F#, 2
	rest 4
	octave 2
	note F#, 2
	rest 6
	note F#, 2
	octave 3
	note F#, 1
	rest 1
	octave 2
	note F#, 1
	rest 1
	note F#, 1
	rest 1
	note F#, 1
	rest 1
	note F#, 1
	rest 1
	note F_, 6
	octave 3
	note F_, 2
	rest 4
	octave 2
	note F_, 2
	rest 6
	note F_, 2
	octave 3
	note F_, 1
	rest 1
	octave 2
	note F_, 1
	rest 1
	note F_, 1
	rest 1
	note F_, 1
	rest 1
	note F_, 1
	rest 1
	note F#, 6
	octave 3
	note F#, 2
	rest 4
	octave 2
	note F#, 2
	rest 6
	note F#, 2
	octave 3
	note F#, 1
	rest 1
	octave 2
	note F#, 1
	rest 1
	note F#, 1
	rest 1
	note F#, 1
	rest 1
	note F#, 1
	rest 1
	note G_, 2
	octave 3
	note G_, 1
	octave 2
	note G_, 1
	rest 2
	octave 3
	note G_, 1
	rest 1
	octave 2
	note F#, 2
	octave 3
	note F#, 1
	octave 2
	note F#, 1
	rest 2
	octave 3
	note F#, 1
	rest 1
	octave 2
	note D_, 2
	octave 3
	note D_, 1
	octave 2
	note D_, 1
	rest 2
	octave 3
	note D_, 1
	rest 1
	octave 2
	note F#, 2
	octave 3
	note F#, 1
	octave 2
	note F#, 1
	rest 2
	octave 3
	note F#, 1
	rest 1
	octave 2
	note G_, 2
	octave 3
	note G_, 1
	octave 2
	note G_, 1
	rest 2
	octave 3
	note G_, 1
	rest 1
	octave 2
	note A_, 2
	octave 3
	note A_, 1
	octave 2
	note A_, 1
	rest 2
	octave 3
	note A_, 1
	rest 1
	note D_, 2
	octave 4
	note D_, 1
	octave 3
	note D_, 1
	rest 2
	octave 4
	note D_, 1
	rest 1
	octave 3
	note F#, 2
	note A#, 1
	note F#, 1
	rest 2
	note A#, 1
	rest 1
	octave 2
	note G_, 2
	octave 3
	note G_, 1
	octave 2
	note G_, 1
	rest 2
	octave 3
	note G_, 1
	rest 1
	octave 2
	note F#, 2
	octave 3
	note F#, 1
	octave 2
	note F#, 1
	rest 2
	octave 3
	note F#, 1
	rest 1
	octave 2
	note D_, 2
	octave 3
	note D_, 1
	octave 2
	note D_, 1
	rest 2
	octave 3
	note D_, 1
	rest 1
	octave 2
	note F#, 2
	octave 3
	note F#, 1
	octave 2
	note F#, 1
	rest 2
	octave 3
	note F#, 1
	rest 1
	octave 2
	note G_, 2
	octave 3
	note G_, 1
	octave 2
	note G_, 1
	rest 2
	octave 3
	note G_, 1
	rest 1
	octave 2
	note A_, 2
	octave 3
	note A_, 1
	octave 2
	note A_, 1
	rest 2
	octave 3
	note A_, 1
	rest 1
	note D_, 2
	octave 4
	note D_, 1
	octave 3
	note D_, 1
	rest 2
	octave 4
	note D_, 1
	rest 1
	octave 3
	note F#, 2
	note A#, 1
	note F#, 1
	rest 2
	note A#, 1
	rest 1
	octave 2
	note G_, 2
	octave 3
	note G_, 1
	octave 2
	note G_, 1
	rest 2
	octave 3
	note G_, 1
	rest 1
	octave 2
	note F#, 2
	octave 3
	note F#, 1
	octave 2
	note F#, 1
	rest 2
	octave 3
	note F#, 1
	rest 1
	octave 2
	note D_, 2
	octave 3
	note D_, 1
	octave 2
	note D_, 1
	rest 2
	octave 3
	note D_, 1
	rest 1
	octave 2
	note F#, 2
	octave 3
	note F#, 1
	octave 2
	note F#, 1
	rest 2
	octave 3
	note F#, 1
	rest 1
	octave 2
	note G_, 2
	octave 3
	note G_, 1
	octave 2
	note G_, 1
	rest 2
	octave 3
	note G_, 1
	rest 1
	octave 2
	note A_, 2
	octave 3
	note A_, 1
	octave 2
	note A_, 1
	rest 2
	octave 3
	note A_, 1
	rest 1
	note D_, 2
	octave 4
	note D_, 1
	octave 3
	note D_, 1
	rest 2
	octave 4
	note D_, 1
	rest 1
	octave 3
	note F#, 2
	note A#, 1
	note F#, 1
	rest 2
	note A#, 1
	rest 1
	octave 2
	note G_, 2
	octave 3
	note G_, 1
	octave 2
	note G_, 1
	rest 2
	octave 3
	note G_, 1
	rest 1
	octave 2
	note F#, 2
	octave 3
	note F#, 1
	octave 2
	note F#, 1
	rest 2
	octave 3
	note F#, 1
	rest 1
	octave 2
	note D_, 2
	octave 3
	note D_, 1
	octave 2
	note D_, 1
	rest 2
	octave 3
	note D_, 1
	rest 1
	octave 2
	note F#, 2
	octave 3
	note F#, 1
	octave 2
	note F#, 1
	rest 2
	octave 3
	note F#, 1
	rest 1
	octave 2
	note G_, 2
	octave 3
	note G_, 1
	octave 2
	note G_, 1
	rest 2
	octave 3
	note G_, 1
	rest 1
	octave 2
	note A_, 2
	octave 3
	note A_, 1
	octave 2
	note A_, 1
	rest 2
	octave 3
	note A_, 1
	rest 1
	note D_, 2
	octave 4
	note D_, 1
	octave 3
	note D_, 1
	rest 2
	octave 4
	note D_, 1
	rest 1
	octave 3
	note F#, 2
	rest 1
	note F#, 1
	rest 2
	note A#, 1
	rest 1
	octave 2
	note G_, 8
	note F#, 8
	note D_, 8
	note F#, 8
	note G_, 8
	note A_, 8
	octave 3
	note D_, 8
	note F#, 8
	octave 2
	note G_, 8
	note F#, 8
	note D_, 8
	note F#, 8
	note G_, 8
	note A_, 8
	octave 3
	note D_, 8
	note F#, 2
	rest 6
	octave 2
	note G_, 2
	octave 3
	note G_, 1
	octave 2
	note G_, 1
	rest 2
	octave 3
	note G_, 1
	rest 1
	octave 2
	note F#, 2
	octave 3
	note F#, 1
	octave 2
	note F#, 1
	rest 2
	octave 3
	note F#, 1
	rest 1
	octave 2
	note D_, 2
	octave 3
	note D_, 1
	octave 2
	note D_, 1
	rest 2
	octave 3
	note D_, 1
	rest 1
	octave 2
	note F#, 2
	octave 3
	note F#, 1
	octave 2
	note F#, 1
	rest 2
	octave 3
	note F#, 1
	rest 1
	octave 2
	note G_, 2
	octave 3
	note G_, 1
	octave 2
	note G_, 1
	rest 2
	octave 3
	note G_, 1
	rest 1
	octave 2
	note A_, 2
	octave 3
	note A_, 1
	octave 2
	note A_, 1
	rest 2
	octave 3
	note A_, 1
	rest 1
	note D_, 2
	octave 4
	note D_, 1
	octave 3
	note D_, 1
	rest 2
	octave 4
	note D_, 1
	rest 1
	octave 3
	note F#, 2
	note A#, 1
	note F#, 1
	rest 2
	note A#, 1
	rest 1
	octave 2
	note G_, 2
	octave 3
	note G_, 1
	octave 2
	note G_, 1
	rest 2
	octave 3
	note G_, 1
	rest 1
	octave 2
	note F#, 2
	octave 3
	note F#, 1
	octave 2
	note F#, 1
	rest 2
	octave 3
	note F#, 1
	rest 1
	octave 2
	note D_, 2
	octave 3
	note D_, 1
	octave 2
	note D_, 1
	rest 2
	octave 3
	note D_, 1
	rest 1
	octave 2
	note F#, 2
	octave 3
	note F#, 1
	octave 2
	note F#, 1
	rest 2
	octave 3
	note F#, 1
	rest 1
	octave 2
	note G_, 2
	octave 3
	note G_, 1
	octave 2
	note G_, 1
	rest 2
	octave 3
	note G_, 1
	rest 1
	octave 2
	note A_, 2
	octave 3
	note A_, 1
	octave 2
	note A_, 1
	rest 2
	octave 3
	note A_, 1
	rest 1
	note D_, 2
	octave 4
	note D_, 1
	octave 3
	note D_, 1
	rest 2
	octave 4
	note D_, 1
	rest 1
	octave 3
	note F#, 2
	note A#, 1
	note F#, 1
	rest 2
	note A#, 1
	rest 1
	note G_, 1
	rest 1
	note D_, 1
	rest 1
	note G_, 1
	rest 1
	note D_, 1
	rest 1
	note A_, 1
	rest 1
	note D_, 1
	rest 1
	note A_, 1
	rest 1
	note D_, 1
	rest 1
	note A#, 1
	rest 1
	note D_, 1
	rest 1
	note A#, 1
	rest 1
	note D_, 1
	rest 1
	octave 4
	note D_, 1
	rest 1
	octave 3
	note D_, 1
	rest 1
	octave 4
	note D_, 1
	rest 1
	octave 3
	note D_, 1
	rest 1
	note G_, 1
	note G_, 1
	note D_, 1
	rest 1
	note G_, 1
	note G_, 1
	note D_, 1
	rest 1
	note F#, 1
	note F#, 1
	note D_, 1
	rest 1
	note F#, 1
	note F#, 1
	note D_, 1
	note_type 12, 1, 8
	rest 16
	rest 1
	sound_jump .mainloop
